<svg xmlns="http://www.w3.org/2000/svg" viewBox="0 0 32 32" role="img" aria-label="CarChapter">
  <defs>
    <linearGradient id="cc-gold" x1="0%" y1="0%" x2="100%" y2="100%">
      <stop offset="0%" stop-color="#E6B84A"/>
      <stop offset="100%" stop-color="#C8973A"/>
    </linearGradient>
  </defs>
  <rect width="32" height="32" rx="8" fill="#0C0C16"/>
  <!-- Stylized "C" for CarChapter -->
  <path fill="url(#cc-gold)" d="M21.2 9.4c-1.1-.7-2.4-1.1-3.8-1.1-4.1 0-7.4 3.3-7.4 7.4s3.3 7.4 7.4 7.4c1.4 0 2.7-.4 3.8-1.1l-1.1-1.8c-.8.5-1.8.8-2.8.8-2.9 0-5.2-2.3-5.2-5.2s2.3-5.2 5.2-5.2c1 0 2 .3 2.8.8l1.1-1.8z"/>
  <!-- Road accent -->
  <path fill="#14B8A6" fill-opacity="0.9" d="M8 24.5h16v1.2H8z"/>
</svg>
